<svg width="45" height="45" viewBox="0 0 45 45" fill="none" xmlns="http://www.w3.org/2000/svg">
<rect width="45" height="45" rx="3" fill="#ECECEC"/>
<g clip-path="url(#clip0_4_1795)">
<path d="M37.9844 22.8087C37.9844 21.4567 37.8755 20.4701 37.6399 19.447H22.3184V25.5493H31.3117C31.1305 27.0657 30.1514 29.3495 27.9755 30.8842L27.945 31.0885L32.7894 34.87L33.125 34.9037C36.2074 32.0353 37.9844 27.8148 37.9844 22.8087Z" fill="#4285F4"/>
<path d="M22.3184 38.8865C26.7244 38.8865 30.4232 37.4248 33.125 34.9036L27.9755 30.884C26.5975 31.8523 24.748 32.5283 22.3184 32.5283C18.003 32.5283 14.3404 29.66 13.0347 25.6953L12.8434 25.7117L7.80611 29.6398L7.74023 29.8243C10.4237 35.1958 15.9359 38.8865 22.3184 38.8865Z" fill="#34A853"/>
<path d="M13.0351 25.6953C12.6906 24.6722 12.4913 23.5759 12.4913 22.4432C12.4913 21.3104 12.6906 20.2142 13.017 19.1911L13.0079 18.9732L7.9075 14.9819L7.74063 15.0619C6.63463 17.2909 6 19.794 6 22.4432C6 25.0924 6.63463 27.5954 7.74063 29.8244L13.0351 25.6953Z" fill="#FBBC05"/>
<path d="M22.3184 12.358C25.3826 12.358 27.4496 13.6918 28.6282 14.8063L33.2337 10.2753C30.4052 7.62607 26.7244 6 22.3184 6C15.9359 6 10.4237 9.69058 7.74023 15.062L13.0166 19.1912C14.3404 15.2265 18.003 12.358 22.3184 12.358Z" fill="#EB4335"/>
</g>
<defs>
<clipPath id="clip0_4_1795">
<rect width="32" height="33" fill="white" transform="translate(6 6)"/>
</clipPath>
</defs>
</svg>
