<svg width="122" height="122" viewBox="0 0 122 122" fill="none" xmlns="http://www.w3.org/2000/svg">
<path d="M119 80.3331L86.7776 48.1109L15.8887 119" stroke="#999999" stroke-width="6" stroke-linecap="round" stroke-linejoin="round"/>
<path d="M38.444 48.1109C43.7828 48.1109 48.1107 43.783 48.1107 38.4443C48.1107 33.1055 43.7828 28.7776 38.444 28.7776C33.1053 28.7776 28.7773 33.1055 28.7773 38.4443C28.7773 43.783 33.1053 48.1109 38.444 48.1109Z" stroke="#999999" stroke-width="6" stroke-linecap="round" stroke-linejoin="round"/>
<path d="M106.111 3H15.8889C8.77055 3 3 8.77055 3 15.8889V106.111C3 113.229 8.77055 119 15.8889 119H106.111C113.229 119 119 113.229 119 106.111V15.8889C119 8.77055 113.229 3 106.111 3Z" stroke="#999999" stroke-width="6" stroke-linecap="round" stroke-linejoin="round"/>
</svg>
