<svg width="29" height="29" viewBox="0 0 29 29" fill="none" xmlns="http://www.w3.org/2000/svg">
<path fill-rule="evenodd" clip-rule="evenodd" d="M27 14.5C27 21.4036 21.4036 27 14.5 27C7.59644 27 2 21.4036 2 14.5C2 7.59644 7.59644 2 14.5 2C21.4036 2 27 7.59644 27 14.5ZM29 14.5C29 22.5081 22.5081 29 14.5 29C6.49187 29 0 22.5081 0 14.5C0 6.49187 6.49187 0 14.5 0C22.5081 0 29 6.49187 29 14.5ZM15.608 12.0909L15.75 22.5455H13.8182L13.9602 12.0909H15.608ZM13.8821 8.26278C14.133 8.01184 14.4337 7.88636 14.7841 7.88636C15.0208 7.88636 15.2339 7.94318 15.4233 8.05682C15.6174 8.17519 15.7713 8.33144 15.8849 8.52557C16.0033 8.7197 16.0625 8.93277 16.0625 9.16477C16.0625 9.51515 15.937 9.81581 15.6861 10.0668C15.4351 10.3177 15.1345 10.4432 14.7841 10.4432C14.4337 10.4432 14.133 10.3177 13.8821 10.0668C13.6312 9.81581 13.5057 9.51515 13.5057 9.16477C13.5057 8.81439 13.6312 8.51373 13.8821 8.26278Z" fill="#B9C0C0"/>
</svg>
